<svg width="91" height="128" viewBox="0 0 91 128" fill="none" xmlns="http://www.w3.org/2000/svg">
<path fill-rule="evenodd" clip-rule="evenodd" d="M64.5641 3.2049C65.6088 4.50187 66.1415 6.25193 67.207 9.75205L90.4835 86.2155C81.8777 81.751 72.5217 78.5311 62.6553 76.7939L47.4999 25.5795C47.252 24.7415 46.4823 24.1667 45.6084 24.1667C44.7323 24.1667 43.9611 24.7445 43.7152 25.5854L28.7434 76.768C18.8311 78.4974 9.43283 81.7231 0.790039 86.2038L24.1807 9.73431C25.2495 6.24022 25.7839 4.49317 26.8286 3.19859C27.751 2.05573 28.9507 1.16815 30.3133 0.620415C31.8569 0 33.6838 0 37.3378 0H54.0445C57.7032 0 59.5326 0 61.0775 0.621716C62.4414 1.17396 63.6418 2.05995 64.5641 3.2049Z" fill="url(#paint0_linear_630_441)"/>
<path fill-rule="evenodd" clip-rule="evenodd" d="M67.3499 89.8544C63.5127 93.1354 55.8538 95.3732 47.0317 95.3732C36.204 95.3732 27.1285 92.0023 24.7203 87.4687C23.8594 90.067 23.6664 93.0406 23.6664 94.9402C23.6664 94.9402 23.0991 104.268 29.5868 110.755C29.5868 107.387 32.3177 104.656 35.6863 104.656C41.4603 104.656 41.4537 109.693 41.4485 113.78C41.4484 113.903 41.4481 114.024 41.4481 114.145C41.4481 120.348 45.2394 125.665 50.6313 127.908C49.826 126.251 49.3742 124.391 49.3742 122.426C49.3742 116.509 52.8475 114.306 56.8842 111.745C60.0962 109.708 63.6648 107.446 66.1241 102.905C67.4074 100.536 68.1361 97.8235 68.1361 94.9402C68.1361 93.167 67.8606 91.4582 67.3499 89.8544Z" fill="url(#paint1_linear_630_441)"/>
<path fill-rule="evenodd" clip-rule="evenodd" d="M67.3499 89.8544C63.5127 93.1354 55.8538 95.3732 47.0317 95.3732C36.204 95.3732 27.1285 92.0023 24.7203 87.4687C23.8594 90.067 23.6664 93.0406 23.6664 94.9402C23.6664 94.9402 23.0991 104.268 29.5868 110.755C29.5868 107.387 32.3177 104.656 35.6863 104.656C41.4603 104.656 41.4537 109.693 41.4485 113.78C41.4484 113.903 41.4481 114.024 41.4481 114.145C41.4481 120.348 45.2394 125.665 50.6313 127.908C49.826 126.251 49.3742 124.391 49.3742 122.426C49.3742 116.509 52.8475 114.306 56.8842 111.745C60.0962 109.708 63.6648 107.446 66.1241 102.905C67.4074 100.536 68.1361 97.8235 68.1361 94.9402C68.1361 93.167 67.8606 91.4582 67.3499 89.8544Z" fill="url(#paint2_linear_630_441)"/>
<defs>
<linearGradient id="paint0_linear_630_441" x1="90.4223" y1="3.36864e-06" x2="6.48511" y2="91.4416" gradientUnits="userSpaceOnUse">
<stop stop-color="#FACF61"/>
<stop offset="1" stop-color="#BF5417"/>
</linearGradient>
<linearGradient id="paint1_linear_630_441" x1="68.1057" y1="87.4687" x2="28.9826" y2="132.533" gradientUnits="userSpaceOnUse">
<stop stop-color="#FACF61"/>
<stop offset="1" stop-color="#BF5417"/>
</linearGradient>
<linearGradient id="paint2_linear_630_441" x1="68.1057" y1="87.4687" x2="28.9826" y2="132.533" gradientUnits="userSpaceOnUse">
<stop stop-color="#FACF61"/>
<stop offset="1" stop-color="#BF5417"/>
</linearGradient>
</defs>
</svg>
