<svg width="40" height="26" viewBox="0 0 40 26" fill="none" xmlns="http://www.w3.org/2000/svg">
<path d="M36.382 4.02354H24.8511V0.729004H36.382V4.02354ZM39.2252 20.4962C38.4971 22.6327 35.8829 25.438 30.8225 25.438C25.7588 25.438 21.6571 22.5899 21.6571 16.0898C21.6571 9.64895 25.487 6.33794 30.661 6.33794C35.7379 6.33794 38.8381 9.27337 39.5151 13.6287C39.6436 14.4623 39.6946 15.5857 39.6716 17.1539H26.449C26.6631 22.4433 32.1864 22.6096 34.0066 20.4962H39.2252ZM26.5643 13.9071H34.743C34.57 11.3588 32.8717 10.2518 30.6627 10.2518C28.2478 10.2518 26.9119 11.5169 26.5643 13.9071ZM10.7934 25.4182H0.142151V0.763596H11.5956C20.616 0.897025 20.7873 9.73131 16.0762 12.1396C21.7773 14.2152 21.9684 25.4182 10.7934 25.4182ZM5.08395 10.6126H10.9877C15.1191 10.6126 15.7747 5.6708 10.4738 5.6708H5.08395V10.6126ZM10.6698 15.5544H5.08395V20.5225H10.5875C15.6199 20.5225 15.3118 15.5544 10.6698 15.5544Z" fill="url(#paint0_linear_41_52)"/>
<defs>
<linearGradient id="paint0_linear_41_52" x1="19.9096" y1="0.729004" x2="19.9096" y2="25.438" gradientUnits="userSpaceOnUse">
<stop stop-color="#FACF61"/>
<stop offset="1" stop-color="#BF5417"/>
</linearGradient>
</defs>
</svg>
