<svg width="121" height="96" viewBox="0 0 121 96" fill="none" xmlns="http://www.w3.org/2000/svg">
<path d="M13.2896 12.5459C13.0624 6.01882 18.1478 0 25.0216 0H95.4576C102.332 0 107.417 6.01882 107.19 12.5459C106.971 18.8158 107.255 26.9376 109.299 33.56C111.349 40.2028 114.807 44.4016 120.471 44.9412V51.0588C114.807 51.5984 111.349 55.7972 109.299 62.44C107.255 69.0624 106.971 77.1842 107.19 83.4544C107.417 89.9812 102.332 96 95.4576 96H25.0216C18.1478 96 13.0624 89.9812 13.2899 83.4544C13.508 77.1842 13.2245 69.0624 11.1802 62.44C9.12988 55.7972 5.66353 51.5984 0 51.0588V44.9412C5.66329 44.4016 9.12988 40.2028 11.1802 33.56C13.2245 26.9376 13.508 18.8158 13.2896 12.5459Z" fill="url(#paint0_linear_630_439)"/>
<g filter="url(#filter0_d_630_439)">
<path d="M62.8471 73.5193C73.9758 73.5193 80.6819 68.0704 80.6819 59.0828C80.6819 52.2892 75.897 47.3708 68.792 46.5922V46.3092C74.012 45.46 78.1083 40.6125 78.1083 35.1988C78.1083 27.4852 72.0184 22.4605 62.7384 22.4605H41.8584V73.5193H62.8471ZM49.9784 28.9358H60.781C66.6535 28.9358 69.9883 31.5541 69.9883 36.2955C69.9883 41.3555 66.1097 44.1861 59.0772 44.1861H49.9784V28.9358ZM49.9784 67.0442V50.237H60.7083C68.3932 50.237 72.3807 53.0675 72.3807 58.5875C72.3807 64.1073 68.5022 67.0442 61.1796 67.0442H49.9784Z" fill="#0D0D0D"/>
<path d="M62.8471 73.5193C73.9758 73.5193 80.6819 68.0704 80.6819 59.0828C80.6819 52.2892 75.897 47.3708 68.792 46.5922V46.3092C74.012 45.46 78.1083 40.6125 78.1083 35.1988C78.1083 27.4852 72.0184 22.4605 62.7384 22.4605H41.8584V73.5193H62.8471ZM49.9784 28.9358H60.781C66.6535 28.9358 69.9883 31.5541 69.9883 36.2955C69.9883 41.3555 66.1097 44.1861 59.0772 44.1861H49.9784V28.9358ZM49.9784 67.0442V50.237H60.7083C68.3932 50.237 72.3807 53.0675 72.3807 58.5875C72.3807 64.1073 68.5022 67.0442 61.1796 67.0442H49.9784Z" stroke="#0D0D0D" stroke-width="0.235294"/>
</g>
<defs>
<filter id="filter0_d_630_439" x="37.9765" y="19.5193" width="46.588" height="58.8235" filterUnits="userSpaceOnUse" color-interpolation-filters="sRGB">
<feFlood flood-opacity="0" result="BackgroundImageFix"/>
<feColorMatrix in="SourceAlpha" type="matrix" values="0 0 0 0 0 0 0 0 0 0 0 0 0 0 0 0 0 0 127 0" result="hardAlpha"/>
<feOffset dy="0.941177"/>
<feGaussianBlur stdDeviation="1.88235"/>
<feColorMatrix type="matrix" values="0 0 0 0 0 0 0 0 0 0 0 0 0 0 0 0 0 0 0.15 0"/>
<feBlend mode="normal" in2="BackgroundImageFix" result="effect1_dropShadow_630_439"/>
<feBlend mode="normal" in="SourceGraphic" in2="effect1_dropShadow_630_439" result="shape"/>
</filter>
<linearGradient id="paint0_linear_630_439" x1="120.388" y1="3.75095e-06" x2="29.9761" y2="118.81" gradientUnits="userSpaceOnUse">
<stop stop-color="#FACF61"/>
<stop offset="1" stop-color="#BF5417"/>
</linearGradient>
</defs>
</svg>
