<svg width="18" height="23" viewBox="0 0 18 23" fill="none" xmlns="http://www.w3.org/2000/svg">
<path d="M3.17015 0.135254C1.58505 0.135254 0.296326 1.40934 0.296326 2.97642V20.0234C0.296326 21.5905 1.58505 22.8646 3.17015 22.8646H14.6654C16.2505 22.8646 17.5392 21.5905 17.5392 20.0234V7.23816H11.7916C10.9968 7.23816 10.3547 6.60334 10.3547 5.81758V0.135254H3.17015ZM11.7916 0.135254V5.81758H17.5392L11.7916 0.135254ZM9.99547 10.4345V14.967L11.3875 13.5908C11.8096 13.1735 12.4921 13.1735 12.9097 13.5908C13.3273 14.0081 13.3318 14.6829 12.9097 15.0958L9.67665 18.2921C9.25456 18.7094 8.57203 18.7094 8.15443 18.2921L4.92138 15.0958C4.49929 14.6785 4.49929 14.0037 4.92138 13.5908C5.34347 13.178 6.026 13.1735 6.44361 13.5908L7.83561 14.967V10.4345C7.83561 9.84404 8.31608 9.36903 8.9133 9.36903C9.51051 9.36903 9.99098 9.84404 9.99098 10.4345H9.99547Z" fill="url(#paint0_linear_41_61)"/>
<defs>
<linearGradient id="paint0_linear_41_61" x1="8.91779" y1="0.135254" x2="8.91779" y2="22.8646" gradientUnits="userSpaceOnUse">
<stop stop-color="#8DE9FA"/>
<stop offset="1" stop-color="#367A86"/>
</linearGradient>
</defs>
</svg>
