<svg width="24" height="24" viewBox="0 0 40 40" fill="none" xmlns="http://www.w3.org/2000/svg">
<path d="M25.7143 0C24.1339 0 22.8571 1.27679 22.8571 2.85714C22.8571 4.4375 24.1339 5.71429 25.7143 5.71429H30.2411L15.125 20.8393C14.0089 21.9554 14.0089 23.7679 15.125 24.8839C16.2411 26 18.0536 26 19.1696 24.8839L34.2857 9.75893V14.2857C34.2857 15.8661 35.5625 17.1429 37.1429 17.1429C38.7232 17.1429 40 15.8661 40 14.2857V2.85714C40 1.27679 38.7232 0 37.1429 0H25.7143ZM7.14286 2.85714C3.19643 2.85714 0 6.05357 0 10V32.8571C0 36.8036 3.19643 40 7.14286 40H30C33.9464 40 37.1429 36.8036 37.1429 32.8571V25.7143C37.1429 24.1339 35.8661 22.8571 34.2857 22.8571C32.7054 22.8571 31.4286 24.1339 31.4286 25.7143V32.8571C31.4286 33.6429 30.7857 34.2857 30 34.2857H7.14286C6.35714 34.2857 5.71429 33.6429 5.71429 32.8571V10C5.71429 9.21429 6.35714 8.57143 7.14286 8.57143H14.2857C15.8661 8.57143 17.1429 7.29464 17.1429 5.71429C17.1429 4.13393 15.8661 2.85714 14.2857 2.85714H7.14286Z" fill="url(#paint0_linear_22_50)"/>
<defs>
<linearGradient id="paint0_linear_22_50" x1="40" y1="-9.57615e-06" x2="-3.35664" y2="4.04795" gradientUnits="userSpaceOnUse">
<stop stop-color="#8DE9FA"/>
<stop offset="1" stop-color="#5D8991"/>
</linearGradient>
</defs>
</svg>
