<svg width="88" height="125" viewBox="0 0 88 125" fill="none" xmlns="http://www.w3.org/2000/svg">
<g filter="url(#filter0_d_630_445)">
<path d="M2 23.6384C2 11.1356 12.1356 1 24.6386 1H63.4834C75.9863 1 86.1219 11.1356 86.1219 23.6384C86.1219 31.5553 82.058 38.5232 75.9024 42.5694C82.058 46.6158 86.1219 53.5835 86.1219 61.5005C86.1219 74.0034 75.9863 84.1391 63.4834 84.1391H62.9918C57.1304 84.1391 51.7891 81.9114 47.7687 78.2566V99.1156C47.7687 111.785 37.3682 122 24.7605 122C12.2888 122 2 111.895 2 99.3614C2 91.4449 6.06354 84.4775 12.2186 80.4311C6.06354 76.3847 2 69.417 2 61.5005C2 53.5835 6.0639 46.6158 12.2194 42.5694C6.0639 38.5232 2 31.5553 2 23.6384ZM40.3532 46.2774H24.6386C16.231 46.2774 9.41546 53.0931 9.41546 61.5005C9.41546 69.8755 16.1785 76.6708 24.5412 76.7233C24.5736 76.7231 24.606 76.7231 24.6386 76.7231H40.3532V46.2774ZM47.7687 61.5005C47.7687 69.9078 54.5842 76.7235 62.9918 76.7235H63.4834C71.891 76.7235 78.7064 69.9078 78.7064 61.5005C78.7064 53.0931 71.891 46.2774 63.4834 46.2774H62.9918C54.5842 46.2774 47.7687 53.0931 47.7687 61.5005ZM24.6386 84.1391C24.606 84.1391 24.5736 84.1388 24.5412 84.1388C16.1785 84.191 9.41546 90.9864 9.41546 99.3614C9.41546 107.738 16.3221 114.584 24.7605 114.584C33.335 114.584 40.3532 107.628 40.3532 99.1156V84.1391H24.6386ZM24.6386 8.41546C16.231 8.41546 9.41546 15.231 9.41546 23.6384C9.41546 32.046 16.231 38.8614 24.6386 38.8614H40.3532V8.41546H24.6386ZM47.7687 38.8614H63.4834C71.891 38.8614 78.7064 32.046 78.7064 23.6384C78.7064 15.231 71.891 8.41546 63.4834 8.41546H47.7687V38.8614Z" fill="url(#paint0_linear_630_445)"/>
</g>
<defs>
<filter id="filter0_d_630_445" x="0.296314" y="0.148157" width="87.5294" height="124.407" filterUnits="userSpaceOnUse" color-interpolation-filters="sRGB">
<feFlood flood-opacity="0" result="BackgroundImageFix"/>
<feColorMatrix in="SourceAlpha" type="matrix" values="0 0 0 0 0 0 0 0 0 0 0 0 0 0 0 0 0 0 127 0" result="hardAlpha"/>
<feOffset dy="0.851843"/>
<feGaussianBlur stdDeviation="0.851843"/>
<feComposite in2="hardAlpha" operator="out"/>
<feColorMatrix type="matrix" values="0 0 0 0 0 0 0 0 0 0 0 0 0 0 0 0 0 0 0.2 0"/>
<feBlend mode="normal" in2="BackgroundImageFix" result="effect1_dropShadow_630_445"/>
<feBlend mode="normal" in="SourceGraphic" in2="effect1_dropShadow_630_445" result="shape"/>
</filter>
<linearGradient id="paint0_linear_630_445" x1="86.0646" y1="1" x2="-26.4532" y2="82.9142" gradientUnits="userSpaceOnUse">
<stop stop-color="#FACF61"/>
<stop offset="1" stop-color="#BF5417"/>
</linearGradient>
</defs>
</svg>
