<svg width="114" height="113" viewBox="0 0 114 113" fill="none" xmlns="http://www.w3.org/2000/svg">
<path d="M110.911 51.4856L61.5586 2.13266C60.8828 1.45654 60.0804 0.920202 59.1973 0.554273C58.3142 0.188345 57.3676 0 56.4117 0C55.4558 0 54.5092 0.188345 53.6261 0.554273C52.7429 0.920202 51.9406 1.45654 51.2648 2.13266L41.0205 12.377L54.0202 25.3767C57.044 24.3169 60.5059 25.0411 62.9151 27.4503C64.0619 28.5992 64.8625 30.0474 65.2254 31.6297C65.5883 33.2119 65.4989 34.8643 64.9675 36.3982L77.4973 48.928C80.5282 47.8824 84.0254 48.5571 86.4452 50.984C87.2496 51.7886 87.8877 52.7438 88.3229 53.795C88.7582 54.8462 88.9821 55.9729 88.9819 57.1106C88.9818 58.2484 88.7575 59.3749 88.322 60.426C87.8864 61.4771 87.2481 62.4321 86.4435 63.2365C85.6388 64.0409 84.6836 64.679 83.6324 65.1142C82.5812 65.5495 81.4546 65.7734 80.3168 65.7732C79.179 65.7731 78.0525 65.5488 77.0014 65.1133C75.9503 64.6777 74.9953 64.0394 74.1909 63.2348C71.6475 60.6913 71.0187 56.9469 72.3045 53.8135L60.6189 42.1279V72.8786C61.4672 73.2984 62.2425 73.8518 62.9151 74.5176C63.7195 75.322 64.3576 76.277 64.7929 77.328C65.2282 78.379 65.4523 79.5055 65.4523 80.6431C65.4523 81.7806 65.2282 82.9071 64.7929 83.9581C64.3576 85.0091 63.7195 85.9641 62.9151 86.7685C62.1107 87.5729 61.1557 88.2109 60.1047 88.6463C59.0537 89.0816 57.9273 89.3057 56.7897 89.3057C55.6521 89.3057 54.5256 89.0816 53.4746 88.6463C52.4236 88.2109 51.4687 87.5729 50.6643 86.7685C49.8589 85.9646 49.22 85.0098 48.7841 83.9587C48.3481 82.9077 48.1238 81.7809 48.1238 80.6431C48.1238 79.5052 48.3481 78.3785 48.7841 77.3274C49.22 76.2763 49.8589 75.3215 50.6643 74.5176C51.5015 73.684 52.4305 73.0517 53.5009 72.6277V41.591C52.4694 41.1671 51.5015 40.5418 50.6643 39.7011C49.4479 38.4862 48.6209 36.9366 48.2887 35.2499C47.9566 33.5632 48.1342 31.8157 48.7991 30.2304L35.976 17.4144L2.13442 51.2206C1.45778 51.8965 0.920993 52.6991 0.554752 53.5825C0.18851 54.466 0 55.4129 0 56.3693C0 57.3257 0.18851 58.2726 0.554752 59.1561C0.920993 60.0395 1.45778 60.8421 2.13442 61.518L51.4909 110.867C52.1667 111.543 52.969 112.08 53.8521 112.446C54.7353 112.812 55.6818 113 56.6378 113C57.5937 113 58.5403 112.812 59.4234 112.446C60.3065 112.08 61.1089 111.543 61.7847 110.867L110.911 61.8182C111.588 61.1424 112.125 60.3398 112.491 59.4563C112.857 58.5729 113.046 57.6259 113.046 56.6696C113.046 55.7132 112.857 54.7662 112.491 53.8828C112.125 52.9993 111.588 52.1968 110.911 51.5209" fill="url(#paint0_linear_630_423)"/>
<defs>
<linearGradient id="paint0_linear_630_423" x1="112.969" y1="4.41518e-06" x2="2.67057" y2="115.547" gradientUnits="userSpaceOnUse">
<stop stop-color="#FACF61"/>
<stop offset="1" stop-color="#BF5417"/>
</linearGradient>
</defs>
</svg>
