<svg width="37" height="36" viewBox="0 0 37 36" fill="none" xmlns="http://www.w3.org/2000/svg">
<g filter="url(#filter0_d_41_59)">
<path d="M13.3802 26.8498C13.3802 26.9822 13.2318 27.0881 13.0447 27.0881C12.8318 27.1079 12.6834 27.002 12.6834 26.8498C12.6834 26.7175 12.8318 26.6116 13.0189 26.6116C13.2125 26.5918 13.3802 26.6977 13.3802 26.8498ZM11.3737 26.5521C11.3286 26.6844 11.4576 26.8366 11.6512 26.8763C11.8189 26.9425 12.0125 26.8763 12.0512 26.744C12.0899 26.6116 11.9673 26.4594 11.7737 26.3999C11.606 26.3536 11.4189 26.4197 11.3737 26.5521ZM14.2254 26.4396C14.0383 26.4859 13.9092 26.6116 13.9286 26.7638C13.9479 26.8962 14.1157 26.9822 14.3092 26.9359C14.4963 26.8895 14.6254 26.7638 14.606 26.6315C14.5866 26.5058 14.4125 26.4197 14.2254 26.4396ZM18.4705 1.0835C9.52213 1.0835 2.67697 8.05113 2.67697 17.2288C2.67697 24.567 7.1802 30.8465 13.6125 33.0565C14.4383 33.2087 14.7286 32.686 14.7286 32.2559C14.7286 31.8456 14.7092 29.5826 14.7092 28.1931C14.7092 28.1931 10.1931 29.1856 9.24471 26.2212C9.24471 26.2212 8.50923 24.2957 7.45116 23.7994C7.45116 23.7994 5.97375 22.7606 7.55439 22.7804C7.55439 22.7804 9.16084 22.9128 10.0447 24.4876C11.4576 27.0417 13.8254 26.3073 14.7479 25.8705C14.8963 24.8118 15.3157 24.0774 15.7802 23.6406C12.1737 23.2304 8.53504 22.6944 8.53504 16.3289C8.53504 14.5093 9.02536 13.5961 10.0576 12.4315C9.88987 12.0014 9.34149 10.2281 10.2254 7.93864C11.5737 7.50854 14.677 9.72522 14.677 9.72522C15.9673 9.35467 17.3544 9.16278 18.7286 9.16278C20.1028 9.16278 21.4899 9.35467 22.7802 9.72522C22.7802 9.72522 25.8834 7.50192 27.2318 7.93864C28.1157 10.2347 27.5673 12.0014 27.3996 12.4315C28.4318 13.6027 29.0641 14.5159 29.0641 16.3289C29.0641 22.7143 25.2641 23.2238 21.6576 23.6406C22.2512 24.1634 22.7544 25.1559 22.7544 26.7109C22.7544 28.9408 22.735 31.7001 22.735 32.2427C22.735 32.6728 23.0318 33.1955 23.8512 33.0433C30.3028 30.8465 34.677 24.567 34.677 17.2288C34.677 8.05113 27.4189 1.0835 18.4705 1.0835ZM8.94794 23.9053C8.86407 23.9715 8.88342 24.1237 8.9931 24.2494C9.09633 24.3553 9.24471 24.4016 9.32858 24.3156C9.41246 24.2494 9.3931 24.0972 9.28342 23.9715C9.1802 23.8656 9.03181 23.8193 8.94794 23.9053ZM8.25116 23.3693C8.206 23.4554 8.27052 23.5612 8.39955 23.6274C8.50278 23.6936 8.63181 23.6737 8.67697 23.5811C8.72213 23.4951 8.65762 23.3892 8.52858 23.323C8.39955 23.2833 8.29633 23.3032 8.25116 23.3693ZM10.3415 25.725C10.2383 25.811 10.277 26.0095 10.4254 26.1352C10.5737 26.2874 10.7608 26.3073 10.8447 26.2014C10.9286 26.1154 10.8899 25.9169 10.7608 25.7911C10.6189 25.6389 10.4254 25.6191 10.3415 25.725ZM9.606 24.7523C9.50278 24.8184 9.50278 24.9905 9.606 25.1427C9.70923 25.2949 9.88342 25.361 9.96729 25.2949C10.0705 25.2088 10.0705 25.0368 9.96729 24.8846C9.87697 24.7324 9.70923 24.6663 9.606 24.7523Z" fill="url(#paint0_linear_41_59)"/>
</g>
<defs>
<filter id="filter0_d_41_59" x="0.899194" y="0.194607" width="35.5556" height="35.5556" filterUnits="userSpaceOnUse" color-interpolation-filters="sRGB">
<feFlood flood-opacity="0" result="BackgroundImageFix"/>
<feColorMatrix in="SourceAlpha" type="matrix" values="0 0 0 0 0 0 0 0 0 0 0 0 0 0 0 0 0 0 127 0" result="hardAlpha"/>
<feOffset dy="0.888889"/>
<feGaussianBlur stdDeviation="0.888889"/>
<feComposite in2="hardAlpha" operator="out"/>
<feColorMatrix type="matrix" values="0 0 0 0 0 0 0 0 0 0 0 0 0 0 0 0 0 0 0.2 0"/>
<feBlend mode="normal" in2="BackgroundImageFix" result="effect1_dropShadow_41_59"/>
<feBlend mode="normal" in="SourceGraphic" in2="effect1_dropShadow_41_59" result="shape"/>
</filter>
<linearGradient id="paint0_linear_41_59" x1="18.677" y1="1.0835" x2="18.677" y2="33.0835" gradientUnits="userSpaceOnUse">
<stop stop-color="#FACF61"/>
<stop offset="1" stop-color="#BF5417"/>
</linearGradient>
</defs>
</svg>
