<svg width="33" height="33" viewBox="0 0 33 33" fill="none" xmlns="http://www.w3.org/2000/svg">
<path d="M16.019 7.83629C11.4743 7.83629 7.80852 11.5185 7.80852 16.0835C7.80852 20.6485 11.4743 24.3307 16.019 24.3307C20.5637 24.3307 24.2295 20.6485 24.2295 16.0835C24.2295 11.5185 20.5637 7.83629 16.019 7.83629ZM16.019 21.4453C13.0821 21.4453 10.6811 19.0407 10.6811 16.0835C10.6811 13.1263 13.0749 10.7217 16.019 10.7217C18.963 10.7217 21.3569 13.1263 21.3569 16.0835C21.3569 19.0407 18.9559 21.4453 16.019 21.4453V21.4453ZM26.4804 7.49893C26.4804 8.56841 25.6229 9.42256 24.5653 9.42256C23.5006 9.42256 22.6502 8.56124 22.6502 7.49893C22.6502 6.43663 23.5077 5.5753 24.5653 5.5753C25.6229 5.5753 26.4804 6.43663 26.4804 7.49893ZM31.9183 9.45128C31.7968 6.87447 31.2109 4.59195 29.3315 2.71139C27.4593 0.830822 25.187 0.242248 22.6217 0.113049C19.9777 -0.0376831 12.0531 -0.0376831 9.40917 0.113049C6.85099 0.235071 4.57864 0.823644 2.69931 2.70421C0.819975 4.58477 0.241169 6.86729 0.112546 9.4441C-0.0375152 12.0999 -0.0375152 20.06 0.112546 22.7157C0.234023 25.2925 0.819975 27.575 2.69931 29.4556C4.57864 31.3362 6.84384 31.9247 9.40917 32.0539C12.0531 32.2047 19.9777 32.2047 22.6217 32.0539C25.187 31.9319 27.4593 31.3433 29.3315 29.4556C31.2037 27.575 31.7897 25.2925 31.9183 22.7157C32.0683 20.06 32.0683 12.107 31.9183 9.45128V9.45128ZM28.5026 25.5653C27.9452 26.9721 26.8662 28.0559 25.4585 28.623C23.3505 29.4628 18.3485 29.269 16.019 29.269C13.6895 29.269 8.6803 29.4556 6.57945 28.623C5.17888 28.0631 4.09988 26.9793 3.53536 25.5653C2.69931 23.4478 2.89224 18.4234 2.89224 16.0835C2.89224 13.7436 2.70645 8.71197 3.53536 6.60172C4.09273 5.19488 5.17174 4.11104 6.57945 3.544C8.68745 2.70421 13.6895 2.89801 16.019 2.89801C18.3485 2.89801 23.3577 2.71139 25.4585 3.544C26.8591 4.10387 27.9381 5.1877 28.5026 6.60172C29.3387 8.71915 29.1457 13.7436 29.1457 16.0835C29.1457 18.4234 29.3387 23.455 28.5026 25.5653Z" fill="url(#paint0_linear_41_50)"/>
<defs>
<linearGradient id="paint0_linear_41_50" x1="16.0154" y1="0" x2="16.0154" y2="32.167" gradientUnits="userSpaceOnUse">
<stop stop-color="#FACF61"/>
<stop offset="1" stop-color="#BF5417"/>
</linearGradient>
</defs>
</svg>
