<svg width="66" height="65" viewBox="0 0 66 65" fill="none" xmlns="http://www.w3.org/2000/svg">
<path d="M58.5478 0H7.50098C3.65796 0 0.540039 3.11792 0.540039 6.96094V58.0078C0.540039 61.8508 3.65796 64.9687 7.50098 64.9687H58.5478C62.3909 64.9687 65.5088 61.8508 65.5088 58.0078V6.96094C65.5088 3.11792 62.3909 0 58.5478 0ZM35.8958 50.6698C35.8958 56.9927 32.1833 59.8786 26.7741 59.8786C21.8869 59.8786 19.059 57.3552 17.6088 54.2953L22.583 51.2934C23.5401 52.9901 24.4103 54.4258 26.513 54.4258C28.5143 54.4258 29.7905 53.6427 29.7905 50.5828V29.8305H35.8958V50.6698V50.6698ZM50.3397 59.8786C44.6695 59.8786 41.0005 57.1812 39.2167 53.6427L44.1909 50.7713C45.4961 52.9031 47.2073 54.4838 50.2092 54.4838C52.7326 54.4838 54.3568 53.2222 54.3568 51.4674C54.3568 49.3791 52.7036 48.6395 49.9047 47.4069L48.382 46.7543C43.9734 44.8835 41.0585 42.5197 41.0585 37.5456C41.0585 32.9629 44.5535 29.4825 49.9917 29.4825C53.8782 29.4825 56.6626 30.8311 58.6639 34.3696L53.9072 37.415C52.8631 35.5443 51.7319 34.8047 49.9772 34.8047C48.1935 34.8047 47.0623 35.9358 47.0623 37.415C47.0623 39.2423 48.1935 39.9819 50.8183 41.1275L52.341 41.7801C57.5327 43.9989 60.4476 46.2757 60.4476 51.3804C60.4476 56.8622 56.126 59.8786 50.3397 59.8786V59.8786Z" fill="url(#paint0_linear_18_64)"/>
<defs>
<linearGradient id="paint0_linear_18_64" x1="33.0244" y1="0" x2="33.0244" y2="64.9687" gradientUnits="userSpaceOnUse">
<stop stop-color="#FACF61"/>
<stop offset="1" stop-color="#BF5417"/>
</linearGradient>
</defs>
</svg>
