<svg width="69" height="69" viewBox="0 0 69 69" fill="none" xmlns="http://www.w3.org/2000/svg">
<path d="M51.2098 64.6917C50.9532 64.8276 50.9748 64.8707 51.2206 64.7456C51.3004 64.7133 51.3672 64.668 51.4255 64.6141C51.4255 64.5688 51.4255 64.5688 51.2098 64.6917ZM51.7273 64.4114C51.6044 64.5127 51.6044 64.5127 51.7511 64.4459C51.8287 64.4006 51.8977 64.3575 51.8977 64.3446C51.8977 64.2863 51.8632 64.2993 51.7273 64.4114ZM52.0637 64.2087C51.9408 64.3101 51.9408 64.3101 52.0874 64.2432C52.1672 64.1979 52.2341 64.1505 52.2341 64.1397C52.2341 64.0858 52.1996 64.0966 52.0637 64.2087ZM52.4044 64.0082C52.2815 64.1095 52.2815 64.1095 52.4238 64.0405C52.5036 63.9974 52.5704 63.9521 52.5704 63.9392C52.5704 63.8853 52.5359 63.896 52.4044 64.0082ZM52.8637 63.7041C52.6287 63.8615 52.5467 63.9629 52.7624 63.8508C52.9068 63.7624 53.1526 63.5683 53.1095 63.5683C53.0168 63.6028 52.9392 63.661 52.8615 63.7041H52.8637ZM32.2431 0.0158488C32.0857 0.0266303 31.6134 0.0697562 31.1994 0.104257C21.3926 0.99265 12.2176 6.27126 6.40204 14.4026C3.187 18.8597 1.09971 24.037 0.312663 29.473C0.0345007 31.3705 0 31.9311 0 34.5036C0 37.0739 0.0345007 37.6259 0.312663 39.5235C2.19079 52.4849 11.4111 63.3656 23.909 67.3979C26.158 68.1159 28.5148 68.6119 31.1994 68.9159C32.2431 69.028 36.7562 69.028 37.7998 68.9159C42.4402 68.3984 46.3582 67.2534 50.2352 65.2761C50.8303 64.9742 50.9424 64.8944 50.8627 64.8276C48.9651 62.3241 47.1021 59.8185 45.2369 57.2913L39.7232 49.8456L32.8166 39.614C30.5137 36.1898 28.2022 32.7743 25.854 29.3846C25.8302 29.3846 25.8001 33.9322 25.7871 39.4782C25.7634 49.1923 25.7634 49.5869 25.6405 49.8111C25.5176 50.0807 25.3149 50.3049 25.0454 50.43C24.8319 50.5313 24.64 50.5529 23.62 50.5529H22.4535L22.1495 50.3631C21.9597 50.2402 21.8023 50.0699 21.7009 49.8694L21.5543 49.5653L21.5651 36.0432L21.5888 22.5211L21.8023 22.2515C21.9381 22.0855 22.1063 21.9497 22.2961 21.8483C22.5786 21.7125 22.6907 21.6909 23.8572 21.6909C25.2265 21.6909 25.4529 21.7448 25.813 22.1394C28.6076 26.3054 31.3935 30.4821 34.1341 34.6718C38.6171 41.4684 44.7366 50.7427 47.7447 55.2924L53.2152 63.5704L53.4847 63.3915C56.1132 61.6384 58.5046 59.5511 60.5681 57.1706C64.9152 52.1938 67.7357 46.0721 68.6909 39.5386C68.9691 37.641 69.0036 37.0782 69.0036 34.5079C69.0036 31.9355 68.9691 31.3856 68.6909 29.4881C66.8128 16.5266 57.5925 5.64593 45.0946 1.61151C42.7572 0.871897 40.3529 0.367325 37.9184 0.108569C37.2651 0.0417243 32.8059 -0.0380585 32.2452 0.0201614L32.2431 0.0158488ZM46.3603 20.8823C46.6859 21.0376 46.9317 21.3308 47.0439 21.6672C47.1021 21.8483 47.1129 25.5981 47.1021 34.0443L47.0784 46.1713L44.9458 42.8937L42.8003 39.614V30.8099C42.8003 25.1022 42.824 21.9022 42.8542 21.7448C42.9555 21.3847 43.2013 21.0828 43.5291 20.8931C43.7965 20.7572 43.9 20.7465 44.9674 20.7465C45.9657 20.7465 46.1361 20.7572 46.3603 20.8823Z" fill="url(#paint0_linear_117_26)"/>
<defs>
<linearGradient id="paint0_linear_117_26" x1="34.5018" y1="0" x2="34.5018" y2="69" gradientUnits="userSpaceOnUse">
<stop stop-color="#FACF61"/>
<stop offset="1" stop-color="#BF5417"/>
</linearGradient>
</defs>
</svg>
