<svg width="43" height="37" viewBox="0 0 43 37" fill="none" xmlns="http://www.w3.org/2000/svg">
<path d="M0 5.25449C0 2.35631 2.35631 0 5.25449 0H16.1001C17.6682 0 19.1707 0.623971 20.2791 1.73234L23.8012 5.25449H36.7814C39.6796 5.25449 42.0359 7.6108 42.0359 10.509V31.527C42.0359 34.4251 39.6796 36.7814 36.7814 36.7814H5.25449C2.35631 36.7814 0 34.4251 0 31.527V5.25449ZM5.25449 3.94087C4.532 3.94087 3.94087 4.532 3.94087 5.25449V31.527C3.94087 32.2494 4.532 32.8406 5.25449 32.8406H36.7814C37.5039 32.8406 38.0951 32.2494 38.0951 31.527V10.509C38.0951 9.78649 37.5039 9.19536 36.7814 9.19536H23.5303C22.66 9.19536 21.8226 8.85054 21.2068 8.23478L17.4958 4.51558C17.1264 4.14612 16.6255 3.94087 16.1001 3.94087H5.25449Z" fill="url(#paint0_linear_29_49)"/>
<defs>
<linearGradient id="paint0_linear_29_49" x1="21.018" y1="0" x2="21.018" y2="36.7814" gradientUnits="userSpaceOnUse">
<stop stop-color="#FACF61"/>
<stop offset="1" stop-color="#BF5417"/>
</linearGradient>
</defs>
</svg>
