<svg width="73" height="63" viewBox="0 0 73 63" fill="none" xmlns="http://www.w3.org/2000/svg">
<path d="M59.2383 20.3893C58.48 20.1365 57.7216 19.8977 56.9633 19.673C57.0897 19.1534 57.202 18.6338 57.3143 18.1142C59.0417 9.74436 57.9042 3.01757 54.0703 0.798718C50.3769 -1.32184 44.3523 0.882978 38.2574 6.19138C37.6536 6.71099 37.0638 7.25868 36.502 7.80637C36.1229 7.44125 35.7296 7.07612 35.3364 6.72503C28.9467 1.0515 22.5429 -1.33588 18.709 0.897022C15.0297 3.03162 13.9343 9.36519 15.4791 17.2857C15.6335 18.0721 15.8021 18.8445 15.9987 19.6309C15.0999 19.8837 14.2151 20.1646 13.3866 20.4595C5.88741 23.0575 0.508789 27.1582 0.508789 31.3993C0.508789 35.7808 6.2385 40.1764 14.0326 42.8447C14.6645 43.0553 15.2965 43.266 15.9425 43.4485C15.7318 44.2911 15.5493 45.1197 15.3808 45.9763C13.9062 53.7704 15.0578 59.9495 18.7371 62.0701C22.5288 64.2608 28.9045 62.0139 35.1117 56.5791C35.6032 56.1438 36.0948 55.6944 36.5863 55.2169C37.2042 55.8208 37.8502 56.3965 38.4962 56.9583C44.5068 62.1262 50.4471 64.2187 54.1125 62.0982C57.9042 59.9074 59.14 53.2649 57.539 45.1759C57.4127 44.558 57.2722 43.926 57.1177 43.28C57.5671 43.1536 58.0025 43.0132 58.4378 42.8727C66.5409 40.1905 72.411 35.851 72.411 31.3993C72.411 27.1441 66.8779 23.0154 59.2383 20.3893V20.3893ZM40.2376 8.46641C45.4617 3.91635 50.3348 2.13284 52.5536 3.41079C54.927 4.773 55.8398 10.278 54.3512 17.5104C54.2529 17.9878 54.1546 18.4513 54.0282 18.9147C50.9106 18.2125 47.7508 17.707 44.577 17.4261C42.7513 14.814 40.7572 12.3143 38.5945 9.96906C39.1422 9.44945 39.6758 8.95793 40.2376 8.46641V8.46641ZM23.9894 38.6878C24.7056 39.9096 25.4358 41.1314 26.2082 42.325C24.0174 42.0863 21.8407 41.7352 19.6921 41.2718C20.31 39.2495 21.0824 37.1571 21.9811 35.0225C22.6271 36.2583 23.2872 37.4801 23.9894 38.6878V38.6878ZM19.7342 21.7936C21.7565 21.3442 23.9051 20.9791 26.138 20.6982C25.3937 21.8638 24.6634 23.0575 23.9753 24.2652C23.2872 25.4589 22.6131 26.6807 21.9811 27.9165C21.0964 25.8241 20.3521 23.7737 19.7342 21.7936ZM23.5821 31.4695C24.509 29.5315 25.5201 27.6357 26.5874 25.7679C27.6547 23.9001 28.8062 22.0885 30.014 20.305C32.1205 20.1505 34.2691 20.0663 36.4599 20.0663C38.6507 20.0663 40.8133 20.1505 42.9058 20.305C44.0995 22.0745 45.237 23.8861 46.3184 25.7398C47.3997 27.5935 48.4108 29.4894 49.3658 31.4133C48.4249 33.3513 47.4137 35.2612 46.3324 37.143C45.2651 39.0108 44.1276 40.8224 42.9339 42.62C40.8414 42.7744 38.6647 42.8447 36.4599 42.8447C34.2551 42.8447 32.1205 42.7744 30.0561 42.648C28.8343 40.8645 27.6828 39.0389 26.6014 37.1711C25.5201 35.3034 24.523 33.4075 23.5821 31.4695ZM48.9445 38.6597C49.6607 37.4239 50.3348 36.174 50.9948 34.9101C51.8936 36.9464 52.68 39.0108 53.3682 41.1314C51.1914 41.6229 48.9866 42.0021 46.7678 42.2548C47.5261 41.0752 48.2423 39.8675 48.9445 38.6597ZM50.9667 27.9165C50.3067 26.6807 49.6326 25.4449 48.9304 24.2372C48.2423 23.0435 47.5261 21.8638 46.7818 20.6982C49.0428 20.9791 51.2055 21.3583 53.2277 21.8217C52.5817 23.9001 51.8234 25.9224 50.9667 27.9165V27.9165ZM36.488 12.1177C37.9625 13.7186 39.3528 15.4039 40.6448 17.1452C37.8642 17.0188 35.0696 17.0188 32.289 17.1452C33.6653 15.3336 35.0836 13.6484 36.488 12.1177ZM20.1976 3.50909C22.5569 2.13284 27.7951 4.09892 33.3142 8.98602C33.6653 9.29497 34.0163 9.63202 34.3815 9.96906C32.2047 12.3143 30.1965 14.814 28.3569 17.4261C25.183 17.707 22.0373 18.1985 18.9197 18.8866C18.7371 18.1704 18.5826 17.4401 18.4282 16.7099C17.1081 9.91288 17.9788 4.78704 20.1976 3.50909V3.50909ZM16.757 40.5275C16.1672 40.359 15.5914 40.1764 15.0156 39.9798C12.0244 39.0389 8.62587 37.5503 6.16828 35.5983C4.7499 34.6152 3.79494 33.0985 3.52812 31.3993C3.52812 28.8293 7.96583 25.5432 14.3696 23.3103C15.1701 23.0294 15.9846 22.7766 16.7991 22.5379C17.7541 25.5853 18.9056 28.5766 20.2398 31.4695C18.8916 34.4046 17.726 37.4379 16.757 40.5275V40.5275ZM33.1316 54.29C30.8144 56.4106 28.1322 58.0958 25.2111 59.2473C23.6523 59.9916 21.8548 60.0619 20.2538 59.4299C18.0209 58.1379 17.094 53.1806 18.358 46.51C18.5124 45.7236 18.681 44.9371 18.8776 44.1647C22.0233 44.8388 25.1971 45.3022 28.413 45.541C30.2668 48.1671 32.303 50.6809 34.4798 53.0402C34.0304 53.4755 33.581 53.8968 33.1316 54.29ZM36.5722 50.8775C35.1398 49.3327 33.7074 47.6194 32.3171 45.7797C33.6653 45.8359 35.0556 45.864 36.4599 45.864C37.9064 45.864 39.3247 45.8359 40.7291 45.7657C39.4371 47.5492 38.0468 49.2484 36.5722 50.8775V50.8775ZM54.927 55.0905C54.8006 56.8038 53.958 58.4047 52.6098 59.4861C50.3769 60.7781 45.6162 59.0929 40.4763 54.6832C39.8865 54.1777 39.2967 53.63 38.6928 53.0682C40.8414 50.6949 42.8216 48.1811 44.6191 45.541C47.8351 45.2742 51.0369 44.7826 54.1967 44.0664C54.3371 44.6422 54.4635 45.218 54.5759 45.7797C55.264 48.8131 55.3764 51.9729 54.927 55.0905V55.0905ZM57.4829 39.9938C57.0897 40.1202 56.6964 40.2466 56.2892 40.359C55.3061 37.2975 54.0984 34.3063 52.7081 31.3993C54.0563 28.5344 55.1938 25.5853 56.1487 22.566C56.879 22.7766 57.5812 23.0013 58.2553 23.226C64.7995 25.473 69.3917 28.8153 69.3917 31.3712C69.3917 34.1237 64.4905 37.6767 57.4829 39.9938ZM36.4599 37.8873C40.0129 37.8873 42.8918 35.0084 42.8918 31.4555C42.8918 27.9025 40.0129 25.0236 36.4599 25.0236C32.9069 25.0236 30.028 27.9025 30.028 31.4555C30.028 35.0084 32.9069 37.8873 36.4599 37.8873Z" fill="url(#paint0_linear_18_63)"/>
<defs>
<linearGradient id="paint0_linear_18_63" x1="36.4599" y1="0" x2="36.4599" y2="62.9178" gradientUnits="userSpaceOnUse">
<stop stop-color="#FACF61"/>
<stop offset="1" stop-color="#BF5417"/>
</linearGradient>
</defs>
</svg>
