<svg width="72" height="55" viewBox="0 0 72 55" fill="none" xmlns="http://www.w3.org/2000/svg">
<path d="M34.1088 41.4344C34.0753 41.5014 34.0418 41.5549 34.1088 41.4344V41.4344ZM61.9221 31.7215C59.6767 31.7208 57.4612 32.2365 55.4469 33.2287C54.7882 31.9001 54.1072 30.7391 53.9956 29.8683C53.8616 28.8523 53.7164 28.2494 53.8727 27.0437C54.029 25.838 54.7324 24.1299 54.7212 24.0071C54.7101 23.8842 54.5649 23.2702 53.1247 23.259C51.6846 23.2479 50.4453 23.5382 50.3013 23.9177C50.047 24.6114 49.8491 25.3245 49.7096 26.0501C49.4528 27.3563 46.8304 32.0229 45.3455 34.4567C44.8543 33.5078 44.4412 32.6705 44.3519 32.0006C44.2179 30.9847 44.0728 30.3818 44.2291 29.1761C44.3854 27.9703 45.0888 26.2622 45.0776 26.1394C45.0664 26.0166 44.9213 25.4026 43.4822 25.3914C42.0432 25.3802 40.8028 25.6705 40.6577 26.0501C40.5125 26.4297 40.3562 27.3228 40.066 28.1825C39.7757 29.0421 36.2824 36.8124 35.3681 38.8331C34.8992 39.8602 34.4973 40.6864 34.207 41.2446C34.1623 41.3339 34.1289 41.3897 34.1065 41.4344C34.14 41.3785 34.1623 41.3227 34.1623 41.3451C33.9167 41.8251 33.7716 42.0931 33.7716 42.0931V42.1042C33.5818 42.4615 33.3697 42.7852 33.2692 42.7852C33.2022 42.7852 33.0571 41.8474 33.3027 40.5636C33.8274 37.8618 35.0667 33.6641 35.0555 33.5189C35.0443 33.4408 35.2899 32.7151 34.2405 32.3244C33.2246 31.956 32.8561 32.57 32.7668 32.57C32.6775 32.57 32.6105 32.7933 32.6105 32.7933C32.6105 32.7933 33.7381 28.0597 30.4458 28.0597C28.3916 28.0597 25.5335 30.3148 24.1291 32.3579C23.2471 32.8379 21.338 33.8762 19.3285 34.9815C18.5581 35.4057 17.7655 35.8411 17.0175 36.2542C16.9617 36.1984 16.917 36.1425 16.8612 36.0867C12.8655 31.822 5.48821 28.8077 5.80081 23.0804C5.91245 20.9927 6.63813 15.5111 19.9872 8.85723C30.9281 3.4091 39.6752 4.9051 41.1813 8.23203C43.3471 12.9768 36.5046 21.8077 25.1428 23.0804C20.8122 23.5605 18.5358 21.8859 17.9664 21.2607C17.3747 20.602 17.2854 20.5685 17.0621 20.6913C16.6937 20.8922 16.9282 21.4728 17.0621 21.8189C17.3971 22.7008 18.7926 24.2638 21.1695 25.0453C23.2572 25.7263 28.3346 26.1059 34.4738 23.7279C41.3711 21.0709 46.7399 13.669 45.1658 7.47287C43.5626 1.17626 33.1218 -0.889117 23.2493 2.61644C17.3669 4.70415 11.0056 7.98642 6.42936 12.2623C0.993507 17.3532 0.123815 21.7854 0.481069 23.6386C1.75267 30.2143 10.8158 34.5014 14.443 37.672C14.2644 37.7725 14.0969 37.8618 13.9406 37.9511C12.122 38.8554 5.21246 42.4726 3.48312 46.2908C1.52939 50.6225 3.80689 53.7262 5.30177 54.1504C9.96729 55.4454 14.7445 53.1121 17.3111 49.2828C19.8778 45.4535 19.5663 40.4519 18.3829 38.1744C18.3717 38.1409 18.3494 38.1186 18.3382 38.0851C18.8071 37.806 19.2872 37.5269 19.7672 37.2478C20.6927 36.7007 21.597 36.1984 22.3897 35.763C21.9431 36.9687 21.6194 38.42 21.4519 40.5189C21.2509 42.975 22.2669 46.1568 23.5843 47.4072C24.1648 47.9543 24.867 47.9654 25.3024 47.9654C26.8431 47.9654 27.5353 46.6927 28.3045 45.1744C29.2535 43.3211 30.0908 41.1664 30.0908 41.1664C30.0908 41.1664 29.0413 46.9941 31.9105 46.9941C32.9588 46.9941 34.0083 45.6433 34.4783 44.9511V44.9623C34.4783 44.9623 34.5006 44.9176 34.5564 44.8283C34.6681 44.6608 34.7239 44.5603 34.7239 44.5603V44.5268C35.1481 43.8012 36.0748 42.1377 37.4692 39.3913C39.2778 35.8411 41.0071 31.4089 41.0071 31.4089C41.1742 32.3832 41.4055 33.3454 41.6993 34.2893C42.0119 35.3499 42.6706 36.511 43.1953 37.6385C42.7711 38.2191 42.5143 38.554 42.5143 38.554C42.5151 38.5626 42.5191 38.5705 42.5255 38.5763C42.1905 39.0229 41.8109 39.503 41.4202 39.9719C39.9923 41.6688 38.2942 43.6114 38.0709 44.1696C37.803 44.8283 37.87 45.3195 38.3835 45.6991C38.7631 45.9894 39.433 46.034 40.1352 45.9782C41.4191 45.8889 42.3234 45.5763 42.7588 45.3753C43.5615 45.0875 44.3201 44.6892 45.0128 44.1919C46.4084 43.1648 47.2568 41.6911 47.1787 39.7486C47.134 38.6768 46.7879 37.605 46.3637 36.6003C46.4865 36.4216 46.6205 36.2318 46.7433 36.0421C48.9527 32.8156 50.6608 29.2743 50.6608 29.2743C50.8279 30.2486 51.0591 31.2108 51.353 32.1547C51.6209 33.059 52.1445 34.0526 52.6246 35.0239C50.5492 36.7097 49.2653 38.6634 48.8187 39.9473C47.9926 42.3253 48.6401 43.397 49.857 43.6426C50.404 43.7543 51.1855 43.4975 51.7661 43.2519C52.6282 42.9647 53.4412 42.5468 54.1764 42.0127C55.5719 40.9856 56.9217 39.5454 56.8324 37.5916C56.7989 36.7097 56.5533 35.8277 56.2295 34.9792C57.9823 34.2424 60.2587 33.8405 63.1614 34.1754C69.3776 34.9011 70.5945 38.7862 70.36 40.405C70.1256 42.0238 68.8194 42.9281 68.384 43.1961C67.9486 43.464 67.8146 43.5645 67.8481 43.7655C67.9039 44.0557 68.1049 44.0446 68.4733 43.9776C68.9868 43.8883 71.7321 42.6602 71.8549 39.657C72.0336 35.8612 68.384 31.6858 61.9188 31.7193L61.9221 31.7215ZM14.0076 47.8761C11.9545 50.1201 9.07416 50.9686 7.83605 50.2541C6.50751 49.4815 7.03222 46.1792 9.56538 43.7878C11.106 42.3364 13.0922 40.9967 14.4095 40.1706C14.711 39.992 15.1464 39.724 15.6822 39.4003C15.7716 39.3444 15.8162 39.3221 15.8162 39.3221C15.9167 39.2551 16.0283 39.1993 16.14 39.1323C17.0655 42.5262 16.1735 45.5182 14.0076 47.8739V47.8761ZM29.0078 37.672C28.2933 39.4248 26.7873 43.8905 25.8718 43.656C25.0903 43.4551 24.6103 40.05 25.7155 36.7007C26.2737 35.015 27.4571 33.0054 28.1605 32.2239C29.2869 30.9623 30.5262 30.5604 30.8164 31.0628C31.2072 31.7215 29.4544 36.5779 29.0078 37.672ZM41.4001 43.5891C41.0987 43.7454 40.8196 43.8458 40.6856 43.7677C40.5851 43.7119 40.8084 43.4997 40.8084 43.4997C40.8084 43.4997 42.3602 41.8363 42.9743 41.0771C43.3315 40.6305 43.7446 40.1058 44.19 39.5253C44.19 39.5811 44.2012 39.6369 44.2012 39.7039C44.1867 41.7023 42.2676 43.0532 41.3968 43.5891H41.4001ZM50.9544 41.412C50.7311 41.2557 50.7646 40.731 51.5126 39.101C51.8029 38.4647 52.4716 37.3929 53.6338 36.3658C53.7654 36.7546 53.8369 37.1612 53.846 37.5716C53.8348 40.0835 52.0374 41.0213 50.9555 41.412H50.9544Z" fill="url(#paint0_linear_18_65)"/>
<defs>
<linearGradient id="paint0_linear_18_65" x1="36.1362" y1="0.917725" x2="36.1362" y2="54.5103" gradientUnits="userSpaceOnUse">
<stop stop-color="#FACF61"/>
<stop offset="1" stop-color="#BF5417"/>
</linearGradient>
</defs>
</svg>
