<svg width="125" height="125" viewBox="0 0 125 125" fill="none" xmlns="http://www.w3.org/2000/svg">
<g clip-path="url(#clip0_301_58)">
<path d="M55.0799 124.92C43.3792 124.077 31.8147 121.132 24.7222 117.189C20.6824 114.943 17.6046 112.183 16.3968 109.723L15.6782 108.26V62.3523V16.4451L16.2468 15.2905C18.7878 10.1316 26.8974 5.48079 38.2179 2.69025C42.0606 1.74293 47.6082 0.799545 52.134 0.323831C56.7554 -0.162062 69.0048 -0.0881368 73.6146 0.454185C85.8668 1.89365 96.2927 5.11625 102.718 9.45C105.196 11.1213 107.738 13.7954 108.599 15.6361L109.338 17.2143L109.275 62.9827L109.211 108.751L108.619 109.956C108.293 110.618 107.308 111.921 106.43 112.851C101.088 118.515 89.628 122.704 74.5968 124.489C71.5331 124.853 58.2231 125.147 55.0799 124.92ZM76.6424 85.5837C76.5974 85.4664 74.8483 83.9082 72.7555 82.1209C70.6626 80.3335 68.8601 78.7871 68.7499 78.6845C68.6398 78.5818 69.0264 78.2184 69.6092 77.8767C70.192 77.5351 71.3085 76.5847 72.0904 75.7648C74.377 73.3671 75.4558 70.4053 75.4558 66.5257C75.4558 62.7064 74.2923 59.6249 71.9618 57.2726C69.613 54.9015 66.9161 53.8827 62.9888 53.8827C56.9351 53.8827 52.2858 57.4151 50.8019 63.1419C50.2914 65.1117 50.2942 69.092 50.8072 70.8386C52.1455 75.3946 55.7902 78.7035 60.3262 79.4805C61.8612 79.7435 62.0691 79.8568 63.1156 81.001C63.7376 81.6809 65.0138 83.0382 65.9518 84.0171L67.6572 85.7969H72.1908C74.6842 85.7969 76.6874 85.701 76.6424 85.5837ZM61.095 72.8901C60.0036 72.321 59.591 71.8793 58.9686 70.6141C58.4879 69.6369 58.4057 69.081 58.4003 66.7713C58.395 64.4243 58.4696 63.9172 58.9716 62.8981C59.7927 61.2304 60.9243 60.4409 62.6749 60.3143C65.1115 60.1375 66.5181 61.3334 67.2552 64.2074C68.159 67.731 67.1651 71.4771 64.9967 72.7204C63.8591 73.3726 62.1621 73.4465 61.095 72.8901ZM41.0002 79.4305C45.7534 78.5291 48.4516 75.7649 48.4516 71.7968C48.4516 68.2765 46.7096 66.2252 41.8951 64.0759C39.1391 62.8456 38.1408 62.0733 38.1408 61.171C38.1408 60.4231 39.0882 59.6036 40.191 59.3977C41.2679 59.1966 44.1239 59.6927 45.8104 60.3739L47.2241 60.945V57.8158V54.6863L45.6898 54.3459C44.7415 54.1356 42.7489 54.0094 40.473 54.0158C37.2493 54.0158 36.6181 54.0943 35.4049 54.5761C31.8612 55.9829 30.1797 58.3793 30.2066 61.9842C30.2317 65.3588 32.012 67.4638 36.4427 69.3575C39.057 70.4749 40.1048 71.3257 40.1048 72.3311C40.1048 74.4678 36.5448 74.7307 32.7756 72.8725C31.7434 72.3636 30.8159 71.9058 30.7147 71.8551C30.6134 71.8044 30.5306 73.2662 30.5306 75.1036C30.5306 78.4293 30.5341 78.4453 31.1362 78.6745C33.4037 79.5367 38.4153 79.9207 41.0002 79.4305ZM95.3409 76.3454V73.5223H91.0448H86.7485V63.8252V54.1283H82.9434H79.1383V66.6484V79.1686H87.2395H95.3409V76.3454ZM68.8275 26.8722C76.3891 26.3477 82.0572 25.3575 87.045 23.6898C92.014 22.0284 94.9493 20.0181 95.6059 17.8266C95.8589 16.9822 95.8408 16.6619 95.4873 15.736C93.902 11.5851 85.0463 8.39591 71.5142 7.10288C65.7257 6.54966 55.1986 6.729 49.6794 7.47454C41.2579 8.61239 34.4234 10.7259 31.3845 13.1322C25.2372 18 31.738 23.354 46.856 25.874C53.411 26.9667 61.9036 27.3525 68.8275 26.8722Z" fill="url(#paint0_linear_301_58)"/>
</g>
<defs>
<linearGradient id="paint0_linear_301_58" x1="62.508" y1="-0.000366211" x2="62.508" y2="125" gradientUnits="userSpaceOnUse">
<stop stop-color="#FACF61"/>
<stop offset="1" stop-color="#BF5417"/>
</linearGradient>
<clipPath id="clip0_301_58">
<rect width="125" height="125" fill="white"/>
</clipPath>
</defs>
</svg>
