<svg width="144" height="86" viewBox="0 0 144 86" fill="none" xmlns="http://www.w3.org/2000/svg">
<path fill-rule="evenodd" clip-rule="evenodd" d="M35.8333 28.6667C40.6104 9.5563 52.5563 0 71.6667 0C100.333 0 103.917 21.5 118.25 25.0833C127.806 27.473 136.167 23.8896 143.333 14.3333C138.556 33.4437 126.61 43 107.5 43C78.8333 43 75.25 21.5 60.9167 17.9167C51.3604 15.527 43 19.1104 35.8333 28.6667ZM0 71.6667C4.77703 52.5563 16.723 43 35.8333 43C64.5 43 68.0833 64.5 82.4167 68.0833C91.973 70.473 100.333 66.8896 107.5 57.3333C102.723 76.4437 90.777 86 71.6667 86C43 86 39.4167 64.5 25.0833 60.9167C15.527 58.527 7.16667 62.1104 0 71.6667Z" fill="url(#paint0_linear_630_421)"/>
<defs>
<linearGradient id="paint0_linear_630_421" x1="143.236" y1="3.36022e-06" x2="70.7373" y2="126.529" gradientUnits="userSpaceOnUse">
<stop stop-color="#FACF61"/>
<stop offset="1" stop-color="#BF5417"/>
</linearGradient>
</defs>
</svg>
