<svg width="29" height="33" viewBox="0 0 29 33" fill="none" xmlns="http://www.w3.org/2000/svg">
<path d="M22.8067 5.17C21.5537 3.73913 20.8631 1.9019 20.8633 0H15.1983V22.7333C15.1555 23.9639 14.6365 25.1296 13.7506 25.9847C12.8647 26.8399 11.6813 27.3174 10.45 27.3167C7.84667 27.3167 5.68333 25.19 5.68333 22.55C5.68333 19.3967 8.72667 17.0317 11.8617 18.0033V12.21C5.53667 11.3667 0 16.28 0 22.55C0 28.655 5.06 33 10.4317 33C16.1883 33 20.8633 28.325 20.8633 22.55V11.0183C23.1605 12.6681 25.9185 13.5532 28.7467 13.5483V7.88333C28.7467 7.88333 25.3 8.04833 22.8067 5.17Z" fill="url(#paint0_linear_756_420)"/>
<defs>
<linearGradient id="paint0_linear_756_420" x1="28.7271" y1="1.28939e-06" x2="-3.38306" y2="29.2907" gradientUnits="userSpaceOnUse">
<stop stop-color="#FACF61"/>
<stop offset="1" stop-color="#BF5417"/>
</linearGradient>
</defs>
</svg>
